<svg width="123" height="32" fill="none" xmlns="http://www.w3.org/2000/svg"><g clip-path="url(#a)" fill="#fff"><path d="M32.009 30.933h-4.88V13.14l-8.584 16.896a2.23 2.23 0 0 1-.894.98 2.32 2.32 0 0 1-1.21.333c-.423 0-.82-.112-1.193-.334-.36-.222-.645-.548-.856-.979L5.769 13.141v17.792H.927V3.37c0-.625.162-1.18.485-1.666.335-.486.77-.813 1.303-.98.26-.069.522-.09.782-.062.261.014.51.077.745.188.249.097.472.243.67.437.2.18.367.403.504.667L16.44 23.39 27.465 1.954c.285-.528.677-.903 1.173-1.125a2.298 2.298 0 0 1 1.583-.104c.522.166.95.493 1.285.979.335.486.503 1.041.503 1.666v27.563ZM58.62 15.87c0 .75-.117 1.563-.353 2.438a7.607 7.607 0 0 1-1.155 2.417c-.52.736-1.21 1.354-2.067 1.854-.844.5-1.874.75-3.091.75H43.22v-5.146h8.734c.658 0 1.167-.222 1.527-.667.36-.458.54-1.02.54-1.687 0-.709-.205-1.264-.614-1.667a1.963 1.963 0 0 0-1.453-.604H43.22c-.658 0-1.167.23-1.527.687-.36.445-.54 1-.54 1.667v7.563c0 .722.198 1.284.596 1.687.41.403.912.604 1.508.604h8.697v5.167H43.22c-.67 0-1.397-.132-2.179-.396a6.486 6.486 0 0 1-2.16-1.27c-.658-.598-1.21-1.369-1.658-2.313-.447-.959-.67-2.118-.67-3.48V15.87c0-.75.118-1.555.354-2.416a7.547 7.547 0 0 1 1.136-2.417 6.666 6.666 0 0 1 2.067-1.875c.856-.5 1.893-.75 3.11-.75h8.734c.67 0 1.39.132 2.16.396a6.1 6.1 0 0 1 2.16 1.292c.67.583 1.23 1.354 1.676 2.312.447.945.67 2.097.67 3.458ZM80.186 13.829h-8.455v17.104h-4.897V13.829h-6.295V8.412h6.295V1.058h4.897v7.354h8.455v5.417ZM102.999 23.475c0 .75-.118 1.562-.354 2.437a7.607 7.607 0 0 1-1.155 2.417c-.52.736-1.21 1.354-2.067 1.854-.844.5-1.874.75-3.091.75h-8.734c-.67 0-1.397-.132-2.179-.396a6.486 6.486 0 0 1-2.16-1.27c-.658-.598-1.21-1.369-1.658-2.313-.447-.959-.67-2.118-.67-3.48 0-.75.118-1.562.354-2.437a7.544 7.544 0 0 1 1.136-2.416 6.664 6.664 0 0 1 2.067-1.875c.857-.5 1.893-.75 3.11-.75h8.734v5.166h-8.734c-.658 0-1.167.23-1.527.688-.36.444-.54 1-.54 1.666 0 .709.205 1.264.614 1.667.423.389.92.583 1.49.583h8.697c.658 0 1.167-.222 1.527-.666.36-.445.54-1 .54-1.667V15.87c0-.708-.198-1.27-.596-1.687-.384-.417-.875-.625-1.471-.625H85.699V8.412h10.633c.67 0 1.391.132 2.16.396a6.099 6.099 0 0 1 2.16 1.292c.671.583 1.23 1.354 1.676 2.312.448.945.671 2.097.671 3.458v7.605ZM113.847 3.65c0 .37-.041.702-.123.993a2.96 2.96 0 0 1-.335.775c-.138.221-.299.41-.481.57-.182.157-.374.289-.576.393a2.56 2.56 0 0 1-.602.219 2.568 2.568 0 0 1-.57.068l3.034 2.932h-2.247l-3.028-2.932h-1.044V5.043h3.285c.182-.016.348-.058.497-.125a1.23 1.23 0 0 0 .648-.7c.06-.166.089-.356.089-.568V2.625a.496.496 0 0 0-.033-.207.207.207 0 0 0-.078-.106.189.189 0 0 0-.101-.044.777.777 0 0 0-.095-.006h-4.794V9.6h-1.452V1.456a.91.91 0 0 1 .207-.581.68.68 0 0 1 .524-.238h5.515c.325 0 .598.067.821.2.223.13.405.294.542.494.142.196.242.408.302.637.063.23.095.444.095.644V3.65ZM122.662 9.6h-6.625a.673.673 0 0 1-.29-.063.775.775 0 0 1-.236-.169.907.907 0 0 1-.206-.587V.637h1.453v7.338h5.904V9.6Z"/></g><defs><clipPath id="a"><path fill="#fff" d="M0 0h123v32H0z"/></clipPath></defs></svg>